HIERARCHY
ROOT Hips
{
  OFFSET 48.726 92.3249 9.9414
  CHANNELS 6 Xposition Yposition Zposition Zrotation Xrotation Yrotation
  JOINT spine
  {
    OFFSET 0 7.4756 0.429885
    CHANNELS 3 Zrotation Xrotation Yrotation
    JOINT spine1
    {
      OFFSET 0 9.92301 0
      CHANNELS 3 Zrotation Xrotation Yrotation
      JOINT spine2
      {
        OFFSET 0 9.50804 0
        CHANNELS 3 Zrotation Xrotation Yrotation
        JOINT Neck
        {
          OFFSET 0 24.4111 1.16384
          CHANNELS 3 Zrotation Xrotation Yrotation
          JOINT Head
          {
            OFFSET 0 7.37523 0
            CHANNELS 3 Zrotation Xrotation Yrotation
            End Site
            {
              OFFSET 0 17.8522 -5.88741
            }
          }
        }
        JOINT RightShoulder
        {
          OFFSET -4.00356 10.2679 -0.557468
          CHANNELS 3 Zrotation Xrotation Yrotation
          JOINT RightArm
          {
            OFFSET 0 13.4673 0
            CHANNELS 3 Zrotation Xrotation Yrotation
            JOINT RightArmRoll
            {
              OFFSET 0 6.79858 0
              CHANNELS 3 Zrotation Xrotation Yrotation
              JOINT RightForeArm
              {
                OFFSET 0 19.8018 0
                CHANNELS 3 Zrotation Xrotation Yrotation
                JOINT RightForeArmRoll
                {
                  OFFSET 0 7.62906 0
                  CHANNELS 3 Zrotation Xrotation Yrotation
                  JOINT RightHand
                  {
                    OFFSET 0 15.3098 0
                    CHANNELS 3 Zrotation Xrotation Yrotation
                    End Site
                    {
                      OFFSET 0 0 0
                    }
                  }
                }
              }
            }
          }
        }
        JOINT LeftShoulder
        {
          OFFSET 4.00356 10.2679 -0.557468
          CHANNELS 3 Zrotation Xrotation Yrotation
          JOINT LeftArm
          {
            OFFSET 0 13.4673 0
            CHANNELS 3 Zrotation Xrotation Yrotation
            JOINT LeftArmRoll
            {
              OFFSET 0 6.79858 0
              CHANNELS 3 Zrotation Xrotation Yrotation
              JOINT LeftForeArm
              {
                OFFSET 0 19.8018 0
                CHANNELS 3 Zrotation Xrotation Yrotation
                JOINT LeftForeArmRoll
                {
                  OFFSET 0 7.62905 0
                  CHANNELS 3 Zrotation Xrotation Yrotation
                  JOINT LeftHand
                  {
                    OFFSET 0 15.3098 0
                    CHANNELS 3 Zrotation Xrotation Yrotation
                    End Site
                    {
                      OFFSET 0 0 0
                    }
                  }
                }
              }
            }
          }
        }
      }
    }
  }
  JOINT RightUpLeg
  {
    OFFSET -6.62609 -1.21505 -1.01927
    CHANNELS 3 Zrotation Xrotation Yrotation
    JOINT RightUpLegRoll
    {
      OFFSET 0 17.9517 0
      CHANNELS 3 Zrotation Xrotation Yrotation
      JOINT RightLeg
      {
        OFFSET 0 -22.2304 0
        CHANNELS 3 Zrotation Xrotation Yrotation
        JOINT RightLegRoll
        {
          OFFSET 0 22.3032 0
          CHANNELS 3 Zrotation Xrotation Yrotation
          JOINT RightFoot
          {
            OFFSET 0 18.5636 0
            CHANNELS 3 Zrotation Xrotation Yrotation
            JOINT RightToeBase
            {
              OFFSET 0 15.5183 0
              CHANNELS 3 Zrotation Xrotation Yrotation
              End Site
              {
                OFFSET 0.00657761 7.51539 -0.866263
              }
            }
          }
        }
      }
    }
  }
  JOINT LeftUpLeg
  {
    OFFSET 6.62609 -1.21505 -1.01927
    CHANNELS 3 Zrotation Xrotation Yrotation
    JOINT LeftUpLegRoll
    {
      OFFSET 0 17.9518 0
      CHANNELS 3 Zrotation Xrotation Yrotation
      JOINT LeftLeg
      {
        OFFSET 0 22.2303 0
        CHANNELS 3 Zrotation Xrotation Yrotation
        JOINT LeftLegRoll
        {
          OFFSET 0 22.5093 0
          CHANNELS 3 Zrotation Xrotation Yrotation
          JOINT LeftFoot
          {
            OFFSET 0 18.3575 0
            CHANNELS 3 Zrotation Xrotation Yrotation
            JOINT LeftToeBase
            {
              OFFSET 0 15.5183 0
              CHANNELS 3 Zrotation Xrotation Yrotation
              End Site
              {
                OFFSET -0.029478 7.51538 -0.866263
              }
            }
          }
        }
      }
    }
  }
}
MOTION
Frames: 13
Frame Time: 0.00208333
49.1327 92.2779 9.07405 -2.82361 -5.85905 4.76975 0.251852 -1.30204 -0.00690068 0.511387 1.3979 -0.0467053 0.512076 3.04294 -0.0553669 18.6118 9.22808 -6.57857 2.92311 6.26748 -2.06275 21.7964 -15.4233 -12.7217 -8.96341 31.246 97.0245 -1.39469e-007 -1.5612e-006 -5.29896e-006 -1.35457 40.4633 -0.361509 1.0599e-006 1.61212e-006 -3.00509 8.02903 -4.95145 0.697682 -71.163 0.238565 1.3497 -101.95 17.8222 -14.1334 -5.26271e-007 3.83688e-006 -3.46823e-006 -6.75269 0.0464528 1.01162 -1.38484e-006 1.12841e-006 3.05762 -8.02958 -4.95142 -0.697643 -173.009 0.0521926 -3.46073 180 7.01543e-015 178.905 176.265 11.6003 179.935 3.5048e-006 7.71499e-007 0.156902 -20.2114 70.0412 21.3947 8.13649 25.2327 -3.48774 -169.134 7.51533 -4.88737 4.54188e-006 -4.6773e-006 -1.1938 -2.91798 -26.8474 0.0298747 -6.46441e-007 -1.89507e-007 -0.611781 20.666 70.573 -21.9278 -8.15941 27.4233 0.554985 
49.1358 92.2788 9.07795 -2.81452 -5.87924 4.75672 0.251153 -1.29687 -0.00303356 0.510925 1.40839 -0.0397624 0.511563 3.05343 -0.0484209 18.5325 9.22507 -6.5586 2.95758 6.28613 -2.06125 21.8495 -15.3884 -12.6725 -8.88786 31.2581 97.0807 -1.39469e-007 -1.5612e-006 -5.29896e-006 -1.47553 40.1083 -0.322322 1.0599e-006 1.61212e-006 -3.00509 8.02903 -4.95145 0.697682 -71.1712 0.231888 1.35383 -101.967 17.828 -14.1357 -5.26271e-007 3.83688e-006 -3.46823e-006 -6.74424 0.0464687 1.00739 -1.38484e-006 1.12841e-006 3.0575 -8.02958 -4.95142 -0.697643 -173.015 0.0376312 -3.45531 180 7.01543e-015 178.905 176.269 11.6207 179.934 3.5048e-006 7.71499e-007 0.157085 -20.2207 70.0504 21.4043 8.13649 25.2327 -3.48774 -169.144 7.48329 -4.88419 4.54188e-006 -4.6773e-006 -1.1945 -2.91874 -26.8455 0.0293743 -6.46441e-007 -1.89507e-007 -0.611895 20.6692 70.5767 -21.9319 -8.15911 27.4249 0.55249 
49.1345 92.2784 9.08636 -2.80522 -5.89923 4.74421 0.250446 -1.29182 0.000798392 0.510372 1.41863 -0.03283 0.510963 3.06367 -0.0414836 18.4529 9.22315 -6.53899 2.99218 6.30411 -2.06004 21.9006 -15.3536 -12.6236 -8.80873 31.2723 97.1345 -1.39469e-007 -1.5612e-006 -5.29896e-006 -1.5992 39.7415 -0.284031 1.0599e-006 1.61212e-006 -3.00509 8.02903 -4.95145 0.697682 -71.1808 0.225465 1.35798 -101.982 17.8354 -14.1376 -5.26271e-007 3.83688e-006 -3.46823e-006 -6.73644 0.0464845 1.00346 -1.38484e-006 1.12841e-006 3.05739 -8.02958 -4.95142 -0.697643 -173.022 0.0225634 -3.44994 180 7.01543e-015 178.904 176.274 11.6399 179.933 3.5048e-006 7.71499e-007 0.157267 -20.2293 70.0589 21.4132 8.13649 25.2327 -3.48774 -169.154 7.4518 -4.88088 4.54188e-006 -4.6773e-006 -1.19518 -2.91964 -26.844 0.0288712 -6.46441e-007 -1.89507e-007 -0.612006 20.6723 70.5802 -21.936 -8.15882 27.4265 0.549961 
49.1392 92.2792 9.09277 -2.79571 -5.91886 4.73231 0.249733 -1.28701 0.00456045 0.509713 1.42839 -0.0259514 0.510258 3.07344 -0.0345977 18.3731 9.2237 -6.5199 3.02677 6.32019 -2.05898 21.9495 -15.3187 -12.575 -8.72578 31.2894 97.1862 -1.39469e-007 -1.5612e-006 -5.29896e-006 -1.72643 39.36 -0.246617 1.0599e-006 1.61212e-006 -3.00509 8.02903 -4.95145 0.697682 -71.1924 0.219487 1.36216 -101.992 17.8449 -14.1393 -5.26271e-007 3.83688e-006 -3.46823e-006 -6.72959 0.0465004 0.999957 -1.38484e-006 1.12842e-006 3.05727 -8.02958 -4.95142 -0.697643 -173.029 0.00696565 -3.44461 180 7.01542e-015 178.903 176.279 11.6576 179.932 3.5048e-006 7.71499e-007 0.157449 -20.2372 70.0666 21.4213 8.13649 25.2327 -3.48774 -169.165 7.42111 -4.8774 4.54188e-006 -4.6773e-006 -1.19583 -2.9207 -26.8427 0.0283677 -6.46441e-007 -1.89507e-007 -0.612115 20.6752 70.5836 -21.9398 -8.15854 27.4282 0.54739 
49.1442 92.2813 9.10017 -2.786 -5.93796 4.72113 0.249017 -1.28254 0.0082179 0.508929 1.43747 -0.01917 0.509428 3.08252 -0.027806 18.2935 9.2281 -6.50152 3.06123 6.33312 -2.05794 21.9958 -15.2836 -12.5264 -8.63875 31.3102 97.2365 -1.39469e-007 -1.5612e-006 -5.29896e-006 -1.85803 38.9606 -0.21007 1.0599e-006 1.61212e-006 -3.00509 8.02903 -4.95145 0.697682 -71.2071 0.214145 1.36637 -101.998 17.8569 -14.1408 -5.26271e-007 3.83688e-006 -3.46823e-006 -6.72402 0.0465162 0.99699 -1.38484e-006 1.12841e-006 3.05715 -8.02958 -4.95142 -0.697643 -173.036 -0.0091855 -3.43931 180 7.01542e-015 178.902 176.285 11.6735 179.932 3.5048e-006 7.71499e-007 0.157631 -20.244 70.0733 21.4283 8.13649 25.2327 -3.48774 -169.176 7.39148 -4.87372 4.54188e-006 -4.6773e-006 -1.19644 -2.92194 -26.8418 0.0278659 -6.46441e-007 -1.89507e-007 -0.612221 20.6779 70.5868 -21.9433 -8.15829 27.43 0.544765 
49.1419 92.2805 9.10303 -2.7761 -5.95638 4.71078 0.248299 -1.2785 0.011736 0.508004 1.44565 -0.0125288 0.508455 3.0907 -0.0211515 18.2143 9.23773 -6.48402 3.0954 6.34168 -2.05681 22.0392 -15.2482 -12.4778 -8.54741 31.3355 97.2858 -1.39469e-007 -1.5612e-006 -5.29896e-006 -1.99483 38.5403 -0.174383 1.0599e-006 1.61212e-006 -3.0051 8.02903 -4.95145 0.697682 -71.2257 0.20963 1.37064 -101.996 17.872 -14.142 -5.26271e-007 3.83688e-006 -3.46823e-006 -6.72006 0.0465319 0.994675 -1.38484e-006 1.12841e-006 3.05703 -8.02958 -4.95142 -0.697643 -173.043 -0.0259135 -3.43406 180 7.01542e-015 178.902 176.29 11.6872 179.931 3.5048e-006 7.71499e-007 0.157813 -20.2496 70.0789 21.434 8.13649 25.2327 -3.48774 -169.187 7.36317 -4.86979 4.54188e-006 -4.6773e-006 -1.197 -2.9234 -26.8413 0.0273683 -6.46441e-007 -1.89507e-007 -0.612325 20.6804 70.5898 -21.9466 -8.15807 27.4318 0.542078 
49.1417 92.2824 9.11058 -2.76601 -5.97395 4.70135 0.247582 -1.27501 0.01508 0.506922 1.45271 -0.00607133 0.507322 3.09775 -0.014677 18.1357 9.25399 -6.4676 3.12916 6.34464 -2.05545 22.0793 -15.2123 -12.429 -8.45151 31.366 97.3346 -1.39469e-007 -1.5612e-006 -5.29896e-006 -2.13763 38.0961 -0.139555 1.0599e-006 1.61212e-006 -3.0051 8.02903 -4.95145 0.697682 -71.2491 0.206132 1.37496 -101.986 17.8906 -14.1432 -5.26271e-007 3.83688e-006 -3.46823e-006 -6.71801 0.0465475 0.993127 -1.38484e-006 1.12841e-006 3.05692 -8.02958 -4.95142 -0.697643 -173.051 -0.0432418 -3.42884 180 7.01542e-015 178.901 176.296 11.6984 179.93 3.5048e-006 7.71499e-007 0.157995 -20.2538 70.083 21.4383 8.13649 25.2327 -3.48774 -169.198 7.33643 -4.86558 4.54188e-006 -4.6773e-006 -1.19749 -2.92509 -26.8412 0.026877 -6.46441e-007 -1.89507e-007 -0.612426 20.6826 70.5924 -21.9494 -8.15789 27.4337 0.539319 
49.149 92.2835 9.1196 -2.75575 -5.9905 4.69295 0.246867 -1.27217 0.0182153 0.505666 1.45843 0.000159255 0.506009 3.10348 -0.00842536 18.0579 9.27825 -6.45243 3.16236 6.34075 -2.05373 22.1159 -15.176 -12.38 -8.35081 31.4026 97.3833 -1.39469e-007 -1.5612e-006 -5.29896e-006 -2.28724 37.6249 -0.105588 1.0599e-006 1.61212e-006 -3.0051 8.02903 -4.95145 0.697682 -71.2782 0.203844 1.37934 -101.966 17.913 -14.1443 -5.26271e-007 3.83688e-006 -3.46823e-006 -6.7182 0.0465629 0.99246 -1.38484e-006 1.12842e-006 3.05681 -8.02958 -4.95142 -0.697643 -173.059 -0.0611939 -3.42366 180 7.01542e-015 178.901 176.302 11.7067 179.929 3.5048e-006 7.71499e-007 0.158177 -20.2565 70.0857 21.441 8.13649 25.2327 -3.48774 -169.21 7.31154 -4.86103 4.54188e-006 -4.6773e-006 -1.19792 -2.92704 -26.8416 0.0263943 -6.46441e-007 -1.89507e-007 -0.612524 20.6844 70.5946 -21.9517 -8.15774 27.4357 0.536478 
49.1524 92.2845 9.12553 -2.7451 -6.00626 4.6853 0.246157 -1.26986 0.0212333 0.504221 1.46307 0.00635148 0.504505 3.10812 -0.00220771 17.9805 9.30853 -6.4384 3.19471 6.33215 -2.05207 22.1489 -15.1392 -12.3309 -8.24602 31.4458 97.4327 -1.39469e-007 -1.5612e-006 -5.29896e-006 -2.44693 37.1155 -0.0720987 1.0599e-006 1.61212e-006 -3.0051 8.02903 -4.95145 0.697682 -71.3123 0.202434 1.38387 -101.936 17.9406 -14.1445 -5.26271e-007 3.83688e-006 -3.46823e-006 -6.72065 0.0465781 0.992795 -1.38484e-006 1.12842e-006 3.0567 -8.02958 -4.95142 -0.697643 -173.068 -0.0798719 -3.41844 180 7.01542e-015 178.9 176.308 11.7124 179.928 3.5048e-006 7.71499e-007 0.158362 -20.2577 70.0868 21.442 8.13649 25.2327 -3.48774 -169.222 7.28827 -4.85614 4.54188e-006 -4.6773e-006 -1.19828 -2.92933 -26.8426 0.0259159 -6.46441e-007 -1.89507e-007 -0.61262 20.686 70.5966 -21.9537 -8.15764 27.4379 0.533514 
49.1562 92.286 9.1355 -2.7339 -6.02154 4.6781 0.24545 -1.26786 0.0242416 0.502594 1.46707 0.0126936 0.502823 3.11212 0.00416394 17.9026 9.34175 -6.42521 3.22613 6.32184 -2.05092 22.1785 -15.1022 -12.282 -8.13795 31.4954 97.4824 -1.39469e-007 -1.5612e-006 -5.29896e-006 -2.61809 36.563 -0.0388478 1.0599e-006 1.61212e-006 -3.0051 8.02903 -4.95145 0.697682 -71.3498 0.201439 1.38857 -101.9 17.9738 -14.1434 -5.26271e-007 3.83688e-006 -3.46823e-006 -6.72497 0.0465933 0.994087 -1.38484e-006 1.12841e-006 3.05659 -8.02958 -4.95142 -0.697643 -173.077 -0.0993238 -3.41314 180 7.01542e-015 178.9 176.315 11.7161 179.927 3.5048e-006 7.71499e-007 0.158549 -20.2575 70.0867 21.4416 8.13649 25.2327 -3.48774 -169.234 7.26618 -4.85094 4.54188e-006 -4.6773e-006 -1.19859 -2.93201 -26.8444 0.0254358 -6.46441e-007 -1.89507e-007 -0.612714 20.6874 70.5984 -21.9553 -8.15756 27.4402 0.530409 
49.1568 92.2903 9.14181 -2.72223 -6.0364 4.67136 0.244745 -1.26616 0.0272288 0.500803 1.47048 0.019142 0.500983 3.11553 0.0106454 17.8244 9.3777 -6.41278 3.25685 6.30988 -2.05021 22.2051 -15.065 -12.2333 -8.02653 31.5504 97.5319 -1.39469e-007 -1.5612e-006 -5.29896e-006 -2.79871 35.9742 -0.00603592 1.0599e-006 1.61212e-006 -3.00511 8.02903 -4.95145 0.697682 -71.3904 0.200852 1.39343 -101.857 18.0117 -14.1412 -5.26271e-007 3.83688e-006 -3.46823e-006 -6.73094 0.0466083 0.996204 -1.38484e-006 1.12842e-006 3.05647 -8.02958 -4.95142 -0.697643 -173.087 -0.119491 -3.40779 180 7.01542e-015 178.9 176.322 11.7179 179.926 3.5048e-006 7.71499e-007 0.158738 -20.2561 70.0854 21.4399 8.13649 25.2327 -3.48774 -169.248 7.24516 -4.84547 4.54188e-006 -4.6773e-006 -1.19885 -2.93503 -26.8468 0.0249542 -6.46441e-007 -1.89507e-007 -0.612806 20.6886 70.6001 -21.9568 -8.1575 27.4426 0.527185 
49.1608 92.2917 9.14973 -2.71015 -6.05086 4.66512 0.244039 -1.26473 0.0301838 0.49887 1.47337 0.0256529 0.499002 3.11841 0.0171927 17.746 9.41617 -6.40102 3.28709 6.29631 -2.04987 22.2289 -15.0276 -12.1848 -7.91168 31.61 97.5808 -1.39469e-007 -1.5612e-006 -5.29896e-006 -2.98682 35.3559 0.0261567 1.0599e-006 1.61212e-006 -3.00511 8.02903 -4.95145 0.697682 -71.4337 0.200664 1.39839 -101.808 18.0535 -14.1381 -5.26271e-007 3.83688e-006 -3.46823e-006 -6.73831 0.0466233 0.999014 -1.38484e-006 1.12842e-006 3.05635 -8.02958 -4.95142 -0.697643 -173.098 -0.140317 -3.40241 180 7.01541e-015 178.899 176.33 11.718 179.925 3.5048e-006 7.71499e-007 0.158928 -20.2537 70.083 21.4371 8.13649 25.2327 -3.48774 -169.261 7.22511 -4.83976 4.54188e-006 -4.6773e-006 -1.19907 -2.93833 -26.8498 0.0244712 -6.46441e-007 -1.89507e-007 -0.612896 20.6897 70.6016 -21.958 -8.15747 27.4451 0.523867 
49.1671 92.2948 9.15698 -2.69776 -6.06496 4.65943 0.243331 -1.26353 0.0330954 0.496811 1.47578 0.0321826 0.4969 3.12082 0.0237614 17.6672 9.45693 -6.38984 3.31708 6.28118 -2.04981 22.2502 -14.9902 -12.1365 -7.79329 31.6734 97.6284 -1.39469e-007 -1.5612e-006 -5.29896e-006 -3.18049 34.7147 0.0575696 1.0599e-006 1.61212e-006 -3.00511 8.02903 -4.95145 0.697682 -71.4793 0.200869 1.40343 -101.755 18.0984 -14.1344 -5.26271e-007 3.83688e-006 -3.46823e-006 -6.74685 0.0466382 1.00239 -1.38484e-006 1.12841e-006 3.05623 -8.02958 -4.95142 -0.697643 -173.109 -0.161742 -3.39704 180 7.01541e-015 178.899 176.338 11.7165 179.924 3.5048e-006 7.71499e-007 0.159119 -20.2503 70.0797 21.4333 8.13649 25.2327 -3.48774 -169.275 7.20591 -4.83385 4.54188e-006 -4.6773e-006 -1.19926 -2.94186 -26.8532 0.0239867 -6.46441e-007 -1.89507e-007 -0.612983 20.6907 70.6029 -21.959 -8.15745 27.4477 0.520477 
